<?xml version="1.0" standalone="no"?>
<!DOCTYPE svg PUBLIC "-//W3C//DTD SVG 20010904//EN"
 "http://www.w3.org/TR/2001/REC-SVG-20010904/DTD/svg10.dtd">
<svg version="1.0" xmlns="http://www.w3.org/2000/svg"
 width="512.000000pt" height="512.000000pt" viewBox="0 0 512.000000 512.000000"
 preserveAspectRatio="xMidYMid meet">

<g transform="translate(0.000000,512.000000) scale(0.100000,-0.100000)"
fill="#000000" stroke="none">
<path d="M95 5106 c-41 -18 -83 -69 -91 -111 -16 -86 -13 -89 281 -385 l273
-275 -54 -60 c-246 -269 -421 -615 -478 -945 -118 -675 182 -1351 809 -1823
l120 -90 5 -498 c5 -483 6 -498 26 -525 33 -45 70 -67 121 -71 47 -5 67 4 691
316 l642 321 123 0 c319 0 660 57 958 158 63 22 130 46 149 55 l35 15 590
-588 c520 -519 594 -589 628 -595 60 -11 107 3 148 44 41 41 55 88 44 149 -6
33 -259 290 -2433 2465 -1440 1441 -2440 2435 -2459 2443 -40 17 -89 17 -128
0z"/>
<path d="M2295 5109 c-216 -18 -499 -77 -715 -150 -171 -57 -488 -207 -497
-234 -2 -6 718 -732 1600 -1613 l1604 -1604 78 63 c653 519 909 1311 658 2033
-173 499 -570 925 -1118 1202 -482 243 -1045 349 -1610 303z"/>
</g>
</svg>
